<?xml version="1.0" encoding="utf-8"?>
<!-- Generator: Adobe Illustrator 24.3.0, SVG Export Plug-In . SVG Version: 6.00 Build 0)  -->
<svg version="1.1" id="Layer_1" xmlns="http://www.w3.org/2000/svg" xmlns:xlink="http://www.w3.org/1999/xlink" x="0px" y="0px"
	 viewBox="0 0 37.7 46.3" style="enable-background:new 0 0 37.7 46.3;" xml:space="preserve">
<style type="text/css">
	.st0{fill:none;stroke:#00CC33;stroke-width:8.503937e-02;stroke-linecap:round;stroke-linejoin:round;stroke-miterlimit:10;}
	.st1{fill-rule:evenodd;clip-rule:evenodd;fill:#FFFFFF;}
	.st2{fill-rule:evenodd;clip-rule:evenodd;fill:#00CC33;}
	.st3{fill-rule:evenodd;clip-rule:evenodd;fill:#FFF100;}
	.st4{fill-rule:evenodd;clip-rule:evenodd;fill:#FF0000;}
	.st5{fill-rule:evenodd;clip-rule:evenodd;fill:#007FFF;}
	.st6{fill:#FFFFFF;stroke:#000000;stroke-width:0.2381;stroke-linecap:round;stroke-linejoin:round;stroke-miterlimit:10;}
	.st7{fill:none;stroke:#000000;stroke-width:0.2381;stroke-linecap:round;stroke-linejoin:round;stroke-miterlimit:10;}
	.st8{fill:none;stroke:#000000;stroke-width:0.24;stroke-linecap:round;stroke-linejoin:round;stroke-miterlimit:10;}
	.st9{fill:none;stroke:#000000;stroke-width:0.4;stroke-linecap:round;stroke-linejoin:round;stroke-miterlimit:10;}
	.st10{fill:none;stroke:#000000;stroke-width:0.4;stroke-linejoin:bevel;stroke-miterlimit:10;}
	.st11{fill-rule:evenodd;clip-rule:evenodd;}
	.st12{fill:#E60012;}
</style>
<g>
	<g id="LINE_47_">
		<line class="st0" x1="35" y1="32.6" x2="35.1" y2="32.7"/>
	</g>
	<g>
		<path class="st1" d="M15.4,27.8c0,0,3.9,0.8,6.7-0.1l1.6,4.5c0,0-3.9,1.7-9.7,0.1L15.4,27.8z"/>
		<g id="LINE_34_">
			<line class="st0" x1="2.8" y1="32.6" x2="2.7" y2="32.7"/>
		</g>
		<g id="HATCH_27_">
			<path class="st2" d="M11.3,26.1L8.6,30c1.9,1.2,4,2,6.3,2.5l1.2-4.6C14.4,27.5,12.8,26.9,11.3,26.1z"/>
		</g>
		<g id="HATCH_3_">
			<path class="st2" d="M21.7,27.9l1.2,4.6c2.2-0.5,4.3-1.3,6.3-2.5l-2.7-3.9C25,26.9,23.4,27.5,21.7,27.9z"/>
		</g>
		<path class="st3" d="M32.3,32.6c-2.5,1.6-5.3,2.7-8.2,3.3c-3.5,0.7-7.6,0.6-11.1-0.1c-2.7-0.6-5.3-1.7-7.7-3.2l-3.6,5.1l-0.6,0.9
			c3.2,2,6.8,3.5,10.5,4.3c4.7,1.1,9.7,1.1,14.4,0c3.7-0.8,7.3-2.3,10.5-4.3L32.3,32.6z"/>
		<g id="HATCH_2_">
			<path class="st4" d="M29.2,30c-1.9,1.2-4,2-6.3,2.5l1.5,5.4c2.8-0.6,5.6-1.8,8-3.3L29.2,30z"/>
		</g>
		<g id="HATCH_1_">
			<path class="st4" d="M14.9,32.5c-2.2-0.5-4.3-1.3-6.3-2.5l-2.7,3.9l-0.4,0.7c2.5,1.5,5.2,2.7,8,3.3L14.9,32.5z"/>
		</g>
		<g id="HATCH_21_">
			<path class="st5" d="M22.9,32.5c-2.7,0.6-5.4,0.6-8.1,0l-1.5,5.4c3.6,0.8,7.4,0.8,11,0L22.9,32.5z"/>
		</g>
		<polygon class="st6" points="18.9,2.3 16.8,13.1 6,15.2 16.8,17.3 18.9,27.9 21,17.3 31.8,15.2 21,13.1 		"/>
		<g>
			<g id="LINE_33_">
				<line class="st7" x1="18.9" y1="28.2" x2="21" y2="17.3"/>
			</g>
			<g>
				<g id="LINE_32_">
					<line class="st8" x1="18.9" y1="2.3" x2="16.8" y2="13.1"/>
				</g>
				<g id="LINE_28_">
					<line class="st8" x1="16.8" y1="13.1" x2="6" y2="15.2"/>
				</g>
				<g id="LINE_27_">
					<line class="st8" x1="6" y1="15.2" x2="16.8" y2="17.3"/>
				</g>
				<g id="LINE_26_">
					<line class="st8" x1="16.8" y1="17.3" x2="18.9" y2="28.2"/>
				</g>
				<g id="LINE_25_">
					<line class="st8" x1="21" y1="17.3" x2="31.8" y2="15.2"/>
				</g>
				<g id="LINE_24_">
					<line class="st8" x1="31.8" y1="15.2" x2="21" y2="13.1"/>
				</g>
				<g id="LINE_23_">
					<line class="st8" x1="21" y1="13.1" x2="18.9" y2="2.3"/>
				</g>
				<g id="LINE_12_">
					<line class="st8" x1="21" y1="13.1" x2="16.8" y2="17.3"/>
				</g>
				<g id="LINE_11_">
					<line class="st8" x1="21" y1="17.3" x2="16.8" y2="13.1"/>
				</g>
				<g id="LINE_10_">
					<line class="st8" x1="18.9" y1="2.3" x2="18.9" y2="15.2"/>
				</g>
				<g id="LINE_9_">
					<line class="st8" x1="18.9" y1="15.2" x2="18.9" y2="28.2"/>
				</g>
				<g id="LINE_8_">
					<line class="st8" x1="6" y1="15.2" x2="31.8" y2="15.2"/>
				</g>
			</g>
		</g>
		<g id="LINE_7_">
			<line class="st7" x1="11.3" y1="26.1" x2="5.9" y2="33.9"/>
		</g>
		<g id="LINE_6_">
			<line class="st9" x1="16.1" y1="27.9" x2="13.4" y2="37.9"/>
		</g>
		<g id="LINE_5_">
			<line class="st9" x1="21.7" y1="27.9" x2="24.4" y2="37.9"/>
		</g>
		<g id="LINE_4_">
			<line class="st7" x1="27.4" y1="25.5" x2="33.4" y2="34"/>
		</g>
		<g id="LINE_3_">
			<line class="st7" x1="10.4" y1="25.5" x2="4.4" y2="34"/>
		</g>
		<g id="LINE_2_">
			<line class="st7" x1="26.5" y1="26.1" x2="32.4" y2="34.6"/>
		</g>
		<g id="LINE_1_">
			<line class="st7" x1="5.9" y1="33.9" x2="5.4" y2="34.6"/>
		</g>
		<g id="ARC_6_">
			<path class="st10" d="M10.4,25.5c5.1,3.6,11.9,3.6,17,0"/>
		</g>
		<g id="ARC_2_">
			<path class="st10" d="M4.4,34c8.7,6.1,20.2,6.1,28.9,0"/>
		</g>
		<g id="ARC_1_">
			<path class="st10" d="M7.7,29.4c6.8,4.7,15.7,4.7,22.5,0"/>
		</g>
		<g id="HATCH_20_">
			<path class="st11" d="M10.4,25.5l-2.7,3.9C8,29.6,8.3,29.8,8.6,30l2.7-3.9C11,25.9,10.7,25.7,10.4,25.5z"/>
		</g>
		<g id="HATCH_19_">
			<path class="st11" d="M30.1,29.4c-0.3,0.2-0.6,0.4-0.9,0.6l3.2,4.6c0.3-0.2,0.6-0.4,0.9-0.6L30.1,29.4z"/>
		</g>
		<g id="HATCH_18_">
			<path class="st11" d="M8.6,30c-0.3-0.2-0.6-0.4-0.9-0.6L4.4,34c0.3,0.2,0.6,0.4,1,0.6l0.4-0.7L8.6,30z"/>
		</g>
		<g id="HATCH_13_">
			<path class="st11" d="M26.5,26.1l2.7,3.9c0.3-0.2,0.6-0.4,0.9-0.6l-2.7-3.9C27.1,25.7,26.8,25.9,26.5,26.1z"/>
		</g>
	</g>
	<g>
		<path class="st12" d="M14.6,41.7c-0.1,0.2-0.2,0.3-0.4,0.5s-0.3,0.2-0.5,0.3c-0.2,0.1-0.4,0.1-0.6,0.2c-0.2,0-0.4,0-0.6,0
			c-0.4-0.1-0.7-0.2-1-0.3c-0.3-0.2-0.5-0.3-0.6-0.5c-0.1-0.2-0.2-0.4-0.3-0.7s0-0.5,0-0.8c0.1-0.3,0.1-0.6,0.3-0.8
			c0.1-0.2,0.3-0.4,0.5-0.6c0.2-0.2,0.4-0.3,0.7-0.3c0.3-0.1,0.6-0.1,0.9,0c0.1,0,0.2,0,0.3,0.1c0.1,0,0.2,0.1,0.3,0.1
			c0.1,0,0.2,0.1,0.3,0.2c0.1,0.1,0.2,0.1,0.2,0.2c0.1-0.1,0.3-0.2,0.5-0.2c0.1,0.4,0.1,0.9,0,1.5l-0.5-0.1c0-0.4-0.1-0.7-0.3-1
			c-0.2-0.2-0.4-0.3-0.7-0.4c-0.2,0-0.4,0-0.6,0s-0.3,0.2-0.4,0.3c-0.1,0.1-0.2,0.3-0.3,0.5C12,39.8,12,40,11.9,40.2
			c-0.1,0.3-0.1,0.5-0.1,0.8c0,0.2,0,0.5,0.1,0.6c0.1,0.2,0.2,0.3,0.3,0.5c0.1,0.1,0.3,0.2,0.6,0.3c0.3,0.1,0.6,0,0.8-0.1
			c0.2-0.1,0.5-0.3,0.7-0.7L14.6,41.7z"/>
		<path class="st12" d="M18.2,43.2l0-0.3c0.4,0,0.6-0.2,0.6-0.5l-0.1-2.6c0-0.3-0.2-0.5-0.6-0.5l0-0.3l3.8-0.1l0.2,1.2l-0.4,0.1
			c0-0.2-0.1-0.4-0.2-0.5c-0.1-0.1-0.2-0.2-0.3-0.3c-0.1-0.1-0.2-0.1-0.4-0.1c-0.2,0-0.3,0-0.5,0c-0.2,0-0.4,0.1-0.4,0.2l0,1
			c0,0.1,0.1,0.2,0.3,0.2c0.1,0,0.2,0,0.3,0c0.1,0,0.1-0.1,0.2-0.1s0.1-0.1,0.1-0.2c0-0.1,0-0.2,0.1-0.3l0.4,0l0.1,1.6l-0.4,0l0-0.2
			c0,0,0-0.1,0-0.2c0-0.1,0-0.1-0.1-0.2s-0.1-0.1-0.2-0.1c-0.1,0-0.2,0-0.4,0c-0.1,0-0.1,0-0.2,0c0,0,0,0.1,0,0.1l0,1.1
			c0,0.3,0.2,0.4,0.7,0.4l0,0.3L18.2,43.2z"/>
		<path class="st12" d="M26.1,42.3l-0.1-0.2c0.4-0.1,0.6-0.3,0.5-0.7l-0.7-2.6c0-0.1-0.1-0.2-0.3-0.1c-0.1,0-0.2,0.1-0.3,0.2
			s-0.2,0.2-0.2,0.3c0,0.1-0.1,0.2-0.1,0.4c0,0.1,0,0.3,0,0.5l-0.4,0.1l-0.2-1.3c0.1,0,0.2,0,0.4-0.1c0.1,0,0.2-0.1,0.3-0.1l2.6-0.7
			c0.1,0,0.2-0.1,0.3-0.1s0.3-0.1,0.4-0.1l0.3,1.3l-0.4,0.1c-0.1-0.3-0.2-0.5-0.4-0.6s-0.4-0.1-0.7-0.1c-0.2,0.1-0.3,0.1-0.2,0.2
			l0.7,2.6c0.1,0.3,0.4,0.4,0.8,0.3l0.1,0.2L26.1,42.3z"/>
	</g>
</g>
</svg>
