<?xml version="1.0" encoding="utf-8"?>
<!-- Generator: Adobe Illustrator 25.3.1, SVG Export Plug-In . SVG Version: 6.00 Build 0)  -->
<svg version="1.1" id="Layer_1" xmlns="http://www.w3.org/2000/svg" xmlns:xlink="http://www.w3.org/1999/xlink" x="0px" y="0px"
	 viewBox="0 0 37.7 40.5" style="enable-background:new 0 0 37.7 40.5;" xml:space="preserve">
<style type="text/css">
	.st0{fill:#FFFFFF;stroke:#FFFFFF;stroke-width:0.3731;stroke-linecap:round;stroke-linejoin:round;stroke-miterlimit:10;}
	.st1{fill:none;stroke:#FFFFFF;stroke-width:0.3731;stroke-linecap:round;stroke-linejoin:round;stroke-miterlimit:10;}
	.st2{fill-rule:evenodd;clip-rule:evenodd;fill:#FFFFFF;stroke:#FFFFFF;stroke-width:0.3731;stroke-miterlimit:10;}
</style>
<g>
	<g>
		<g id="LINE_13_">
			<line class="st0" x1="18.4" y1="0" x2="16.2" y2="11.2"/>
		</g>
		<g id="LINE_14_">
			<line class="st0" x1="16.2" y1="11.2" x2="5" y2="13.4"/>
		</g>
		<g id="LINE_15_">
			<line class="st0" x1="5" y1="13.4" x2="16.2" y2="15.6"/>
		</g>
		<g id="LINE_16_">
			<line class="st0" x1="16.2" y1="15.6" x2="18.4" y2="26.8"/>
		</g>
		<g id="LINE_17_">
			<line class="st0" x1="18.4" y1="26.8" x2="20.5" y2="15.6"/>
		</g>
		<g id="LINE_18_">
			<line class="st0" x1="20.5" y1="15.6" x2="31.7" y2="13.4"/>
		</g>
		<g id="LINE_19_">
			<line class="st0" x1="31.7" y1="13.4" x2="20.5" y2="11.2"/>
		</g>
		<g id="LINE_20_">
			<line class="st0" x1="20.5" y1="11.2" x2="18.4" y2="0"/>
		</g>
		<g id="LINE_21_">
			<line class="st0" x1="20.5" y1="11.2" x2="16.2" y2="15.6"/>
		</g>
		<g id="LINE_22_">
			<line class="st0" x1="20.5" y1="15.6" x2="16.2" y2="11.2"/>
		</g>
		<g id="LINE_29_">
			<line class="st0" x1="18.4" y1="0" x2="18.4" y2="13.4"/>
		</g>
		<g id="LINE_30_">
			<line class="st0" x1="18.4" y1="13.4" x2="18.4" y2="26.8"/>
		</g>
		<g id="LINE_31_">
			<line class="st0" x1="5" y1="13.4" x2="31.7" y2="13.4"/>
		</g>
	</g>
	<g id="LINE_70_">
		<line class="st1" x1="10.5" y1="25" x2="4.8" y2="33.1"/>
	</g>
	<g id="LINE_69_">
		<line class="st1" x1="15.5" y1="26.8" x2="12.7" y2="37.2"/>
	</g>
	<g id="LINE_68_">
		<line class="st1" x1="21.3" y1="26.8" x2="24.1" y2="37.2"/>
	</g>
	<g id="LINE_67_">
		<line class="st1" x1="27.2" y1="24.3" x2="33.3" y2="33.2"/>
	</g>
	<g id="LINE_66_">
		<line class="st1" x1="9.6" y1="24.3" x2="3.4" y2="33.2"/>
	</g>
	<g id="LINE_65_">
		<line class="st1" x1="26.2" y1="25" x2="32.4" y2="33.8"/>
	</g>
	<g id="LINE_64_">
		<line class="st1" x1="4.8" y1="33.1" x2="4.4" y2="33.8"/>
	</g>
	<g id="ARC_14_">
		<path class="st1" d="M9.6,24.3c5.3,3.7,12.3,3.7,17.6,0"/>
	</g>
	<g id="ARC_13_">
		<path class="st1" d="M3.4,33.2c9,6.3,21,6.3,30,0"/>
	</g>
	<g id="ARC_12_">
		<path class="st1" d="M6.7,28.4c7,4.9,16.3,4.9,23.3,0"/>
	</g>
	<g id="HATCH_26_">
		<path class="st2" d="M9.6,24.3l-2.8,4c0.3,0.2,0.6,0.4,1,0.6l2.8-4.1C10.2,24.8,9.9,24.6,9.6,24.3z"/>
	</g>
	<g id="HATCH_25_">
		<path class="st2" d="M30,28.4c-0.3,0.2-0.6,0.4-1,0.6l3.3,4.8c0.3-0.2,0.7-0.4,1-0.6L30,28.4z"/>
	</g>
	<g id="HATCH_24_">
		<path class="st2" d="M7.7,29c-0.3-0.2-0.7-0.4-1-0.6l-3.3,4.8c0.3,0.2,0.7,0.5,1,0.7l0.5-0.7L7.7,29z"/>
	</g>
	<g id="HATCH_23_">
		<path class="st2" d="M26.2,25L29,29c0.3-0.2,0.7-0.4,1-0.6l-2.8-4C26.9,24.6,26.5,24.8,26.2,25z"/>
	</g>
</g>
</svg>
