<?xml version="1.0" encoding="utf-8"?>
<!-- Generator: Adobe Illustrator 24.3.0, SVG Export Plug-In . SVG Version: 6.00 Build 0)  -->
<svg version="1.1" id="Layer_1" xmlns="http://www.w3.org/2000/svg" xmlns:xlink="http://www.w3.org/1999/xlink" x="0px" y="0px"
	 viewBox="0 0 26.5 41.4" style="enable-background:new 0 0 26.5 41.4;" xml:space="preserve">
<style type="text/css">
	.st0{fill-rule:evenodd;clip-rule:evenodd;fill:#00CC33;}
	.st1{fill-rule:evenodd;clip-rule:evenodd;fill:#FF0000;}
	.st2{fill-rule:evenodd;clip-rule:evenodd;fill:#007FFF;}
	.st3{fill:none;stroke:#020202;stroke-width:0.3;stroke-linecap:round;stroke-linejoin:round;stroke-miterlimit:10;}
	.st4{fill:none;stroke:#020202;stroke-width:0.196;stroke-linecap:round;stroke-linejoin:round;stroke-miterlimit:10;}
	.st5{fill:none;stroke:#020202;stroke-width:0.4;stroke-miterlimit:10;}
	.st6{fill-rule:evenodd;clip-rule:evenodd;stroke:#020202;stroke-width:0.196;stroke-miterlimit:10;}
	.st7{fill:#FFFFFF;stroke:#020202;stroke-width:0.4;stroke-linecap:round;stroke-linejoin:round;stroke-miterlimit:10;}
	.st8{fill:#0001D4;}
	.st9{fill:#F48787;stroke:#F48787;stroke-width:0.1;stroke-miterlimit:10;}
	.st10{fill:#FF0000;stroke:#FF0000;stroke-width:0.1;stroke-miterlimit:10;}
</style>
<g id="HATCH_8_">
	<path class="st0" d="M6.6,20.9l-2.3,3.3c1.6,1,3.4,1.7,5.2,2.1l1-3.8C9.2,22.2,7.9,21.6,6.6,20.9z"/>
</g>
<g id="HATCH_9_">
	<path class="st0" d="M15.3,22.3l1,3.8c1.8-0.4,3.6-1.1,5.2-2.1l-2.3-3.3C18.1,21.5,16.7,22,15.3,22.3z"/>
</g>
<g id="HATCH_12_">
	<path class="st1" d="M21.6,24.1c-1.6,1-3.4,1.7-5.2,2.1l1.2,4.5c2.4-0.5,4.6-1.5,6.7-2.8L21.6,24.1z"/>
</g>
<g id="HATCH_14_">
	<path class="st1" d="M9.6,26.3c-1.8-0.4-3.6-1.1-5.2-2.1l-2.3,3.3L1.7,28c2,1.3,4.3,2.2,6.7,2.7L9.6,26.3z"/>
</g>
<g id="HATCH_16_">
	<path class="st2" d="M16.3,26.3c-2.2,0.5-4.5,0.5-6.7,0l-1.2,4.5c3,0.7,6.1,0.7,9.2,0L16.3,26.3z"/>
</g>
<g>
	<g>
		<g id="LINE_13_">
			<line class="st3" x1="13" y1="0.5" x2="11.2" y2="9.6"/>
		</g>
		<g id="LINE_14_">
			<line class="st3" x1="11.2" y1="9.6" x2="2.2" y2="11.3"/>
		</g>
		<g id="LINE_15_">
			<line class="st3" x1="2.2" y1="11.3" x2="11.2" y2="13.2"/>
		</g>
		<g id="LINE_16_">
			<line class="st3" x1="11.2" y1="13.2" x2="13" y2="22.3"/>
		</g>
		<g id="LINE_17_">
			<line class="st3" x1="13" y1="22.3" x2="14.7" y2="13.2"/>
		</g>
		<g id="LINE_18_">
			<line class="st3" x1="14.7" y1="13.2" x2="23.9" y2="11.3"/>
		</g>
		<g id="LINE_19_">
			<line class="st3" x1="23.9" y1="11.3" x2="14.7" y2="9.6"/>
		</g>
		<g id="LINE_20_">
			<line class="st3" x1="14.7" y1="9.6" x2="13" y2="0.5"/>
		</g>
		<g id="LINE_21_">
			<line class="st3" x1="14.7" y1="9.6" x2="11.2" y2="13.2"/>
		</g>
		<g id="LINE_22_">
			<line class="st3" x1="14.7" y1="13.2" x2="11.2" y2="9.6"/>
		</g>
		<g id="LINE_29_">
			<line class="st3" x1="13" y1="0.5" x2="13" y2="11.3"/>
		</g>
		<g id="LINE_30_">
			<line class="st3" x1="13" y1="11.3" x2="13" y2="22.3"/>
		</g>
		<g id="LINE_31_">
			<line class="st3" x1="2.2" y1="11.3" x2="23.9" y2="11.3"/>
		</g>
	</g>
	<g id="LINE_70_">
		<line class="st4" x1="6.7" y1="20.8" x2="2" y2="27.4"/>
	</g>
	<g id="LINE_69_">
		<line class="st5" x1="10.7" y1="22.3" x2="8.4" y2="30.8"/>
	</g>
	<g id="LINE_68_">
		<line class="st5" x1="15.3" y1="22.3" x2="17.7" y2="30.8"/>
	</g>
	<g id="LINE_67_">
		<line class="st4" x1="20.1" y1="20.3" x2="25.3" y2="27.4"/>
	</g>
	<g id="LINE_66_">
		<line class="st4" x1="5.9" y1="20.3" x2="0.8" y2="27.4"/>
	</g>
	<g id="LINE_65_">
		<line class="st4" x1="19.4" y1="20.8" x2="24.3" y2="27.9"/>
	</g>
	<g id="LINE_64_">
		<line class="st4" x1="2" y1="27.4" x2="1.6" y2="28"/>
	</g>
	<g id="ARC_14_">
		<path class="st5" d="M5.9,20.3c4.3,2.9,10.1,2.9,14.4,0"/>
	</g>
	<g id="ARC_13_">
		<path class="st5" d="M0.8,27.4c7.3,5.1,17,5.1,24.3,0"/>
	</g>
	<g id="ARC_12_">
		<path class="st5" d="M3.6,23.6c5.7,4,13.3,4,18.9,0"/>
	</g>
	<g id="HATCH_26_">
		<path class="st6" d="M5.9,20.3l-2.3,3.3c0.3,0.2,0.5,0.3,0.8,0.5l2.3-3.3C6.4,20.6,6.1,20.5,5.9,20.3z"/>
	</g>
	<g id="HATCH_25_">
		<path class="st6" d="M22.5,23.6c-0.3,0.2-0.5,0.3-0.8,0.5l2.8,3.9c0.3-0.2,0.5-0.3,0.8-0.5L22.5,23.6z"/>
	</g>
	<g id="HATCH_24_">
		<path class="st6" d="M4.4,24.2c-0.3-0.2-0.5-0.3-0.8-0.5L1,27.3c0.3,0.2,0.4,0.4,0.7,0.7l0.2-0.5L4.4,24.2z"/>
	</g>
	<g id="HATCH_23_">
		<path class="st6" d="M19.4,20.8l2.3,3.3c0.3-0.2,0.5-0.3,0.8-0.5l-2.3-3.3C20,20.5,19.7,20.6,19.4,20.8z"/>
	</g>
</g>
<path class="st7" d="M10.6,22.4c0,0,2.9,0.3,4.8-0.1l1,3.8c0,0-3.7,0.9-6.8,0.1L10.6,22.4z"/>
<text transform="matrix(1 0 0 1 297.6377 420.9449)" style="font-family:'AdobeMingStd-Light-B5pc-H'; font-size:12px;">F48787</text>
<rect x="1.8" y="32.2" class="st8" width="22.1" height="5.6"/>
<g>
	<g>
		<path class="st9" d="M8.8,37.1c-0.5,0-0.8-0.2-1-0.5c-0.2-0.3-0.2-0.8-0.1-1.3c0.2-0.6,0.4-1,0.8-1.4c0.4-0.4,0.9-0.7,1.4-0.7
			c0.1,0,0.2,0,0.3,0c0.2,0.1,0.4,0.1,0.4,0.1c0.1,0,0.2,0,0.3-0.1l0.1,0.9l-0.2,0.1c-0.1-0.2-0.3-0.4-0.4-0.5
			c-0.2-0.2-0.4-0.3-0.7-0.3c-0.4,0-0.7,0.2-1,0.5c-0.3,0.3-0.4,0.7-0.5,1.1c-0.1,0.5-0.2,0.9-0.1,1.2c0.1,0.4,0.4,0.6,0.8,0.6
			c0.3,0,0.6-0.1,0.8-0.3c0.2-0.1,0.3-0.3,0.5-0.5l0.1,0.1C10.1,36.7,9.5,37.1,8.8,37.1z"/>
		<path class="st9" d="M14.7,34.2c-0.2-0.3-0.4-0.5-0.5-0.6c-0.2-0.1-0.4-0.2-0.8-0.2c-0.2,0-0.3,0-0.4,0.1
			c-0.1,0.1-0.2,0.1-0.2,0.3L12.4,35h0.3c0.3,0,0.6-0.1,0.8-0.2c0.1-0.1,0.2-0.2,0.3-0.4h0.2l-0.4,1.4h-0.2c0.1-0.4-0.2-0.7-0.7-0.7
			h-0.3L12,36.5c0,0.2,0,0.3,0.1,0.3c0.1,0,0.2,0.1,0.4,0.1l0,0.1h-1.5l0-0.1c0.3,0,0.5-0.1,0.6-0.3l0.8-2.7c0-0.1,0-0.2-0.1-0.3
			c-0.1,0-0.2-0.1-0.3-0.1l0-0.1h2.8l0.1,0.9L14.7,34.2z"/>
		<path class="st9" d="M19,34.2c-0.2-0.3-0.4-0.5-0.5-0.6c-0.2-0.1-0.3-0.2-0.5-0.2c-0.2,0-0.3,0.1-0.3,0.2l-0.8,2.9
			c0,0.1,0,0.2,0.1,0.3c0.1,0,0.2,0,0.4,0l0,0.1h-1.8l0-0.1c0.2,0,0.3,0,0.4,0c0.1,0,0.3-0.2,0.3-0.3l0.8-2.8c0-0.1,0-0.2-0.2-0.2
			c-0.2,0-0.4,0.1-0.7,0.2c-0.2,0.1-0.5,0.3-0.8,0.6l-0.1-0.1l0.6-0.9H19l0.1,0.9L19,34.2z"/>
	</g>
	<g>
		<path class="st10" d="M8.7,36.9c-0.5,0-0.8-0.2-1-0.5c-0.2-0.3-0.2-0.8-0.1-1.3c0.2-0.6,0.4-1,0.8-1.4C8.9,33.2,9.4,33,9.9,33
			c0.1,0,0.2,0,0.3,0c0.2,0.1,0.4,0.1,0.4,0.1c0.1,0,0.2,0,0.3-0.1l0.1,0.9L10.8,34c-0.1-0.2-0.3-0.4-0.4-0.5
			c-0.2-0.2-0.4-0.3-0.7-0.3c-0.4,0-0.7,0.2-1,0.5c-0.3,0.3-0.4,0.7-0.5,1.1c-0.1,0.5-0.2,0.9-0.1,1.2c0.1,0.4,0.4,0.6,0.8,0.6
			c0.3,0,0.6-0.1,0.8-0.3c0.2-0.1,0.3-0.3,0.5-0.5l0.1,0.1C10,36.5,9.4,36.9,8.7,36.9z"/>
		<path class="st10" d="M14.6,34c-0.2-0.3-0.4-0.5-0.5-0.6c-0.2-0.1-0.4-0.2-0.8-0.2c-0.2,0-0.3,0-0.4,0.1c-0.1,0.1-0.2,0.1-0.2,0.3
			l-0.3,1.2h0.3c0.3,0,0.6-0.1,0.8-0.2c0.1-0.1,0.2-0.2,0.3-0.4h0.2l-0.4,1.4h-0.2c0.1-0.4-0.2-0.7-0.7-0.7h-0.3l-0.4,1.3
			c0,0.2,0,0.3,0.1,0.3c0.1,0,0.2,0.1,0.4,0.1l0,0.1h-1.5l0-0.1c0.3,0,0.5-0.1,0.6-0.3l0.8-2.7c0-0.1,0-0.2-0.1-0.3
			c-0.1,0-0.2-0.1-0.3-0.1l0-0.1h2.8l0.1,0.9L14.6,34z"/>
		<path class="st10" d="M18.9,34c-0.2-0.3-0.4-0.5-0.5-0.6c-0.2-0.1-0.3-0.2-0.5-0.2c-0.2,0-0.3,0.1-0.3,0.2l-0.8,2.9
			c0,0.1,0,0.2,0.1,0.3c0.1,0,0.2,0,0.4,0l0,0.1h-1.8l0-0.1c0.2,0,0.3,0,0.4,0c0.1,0,0.3-0.2,0.3-0.3l0.8-2.8c0-0.1,0-0.2-0.2-0.2
			c-0.2,0-0.4,0.1-0.7,0.2c-0.2,0.1-0.5,0.3-0.8,0.6L15.3,34l0.6-0.9H19l0.1,0.9L18.9,34z"/>
	</g>
</g>
</svg>
