<?xml version="1.0" encoding="utf-8"?>
<!-- Generator: Adobe Illustrator 24.3.0, SVG Export Plug-In . SVG Version: 6.00 Build 0)  -->
<svg version="1.1" id="Layer_1" xmlns="http://www.w3.org/2000/svg" xmlns:xlink="http://www.w3.org/1999/xlink" x="0px" y="0px"
	 viewBox="0 0 37.7 49.3" style="enable-background:new 0 0 37.7 49.3;" xml:space="preserve">
<style type="text/css">
	.st0{fill:none;stroke:#FFFFFF;stroke-width:0.3731;stroke-linecap:round;stroke-linejoin:round;stroke-miterlimit:10;}
	.st1{fill-rule:evenodd;clip-rule:evenodd;fill:#FFFFFF;stroke:#FFFFFF;stroke-width:0.3731;stroke-miterlimit:10;}
	.st2{fill:none;stroke:#FFFFFF;stroke-width:0.5;stroke-miterlimit:10;}
	.st3{fill:#FFFFFF;}
	.st4{fill:#FCFCFC;stroke:#FFFFFF;stroke-width:0.1;stroke-miterlimit:10;}
</style>
<g>
	<g>
		<g id="LINE_13_">
			<line class="st0" x1="18.8" y1="0" x2="16.6" y2="11.2"/>
		</g>
		<g id="LINE_14_">
			<line class="st0" x1="16.6" y1="11.2" x2="5.4" y2="13.4"/>
		</g>
		<g id="LINE_15_">
			<line class="st0" x1="5.4" y1="13.4" x2="16.6" y2="15.6"/>
		</g>
		<g id="LINE_16_">
			<line class="st0" x1="16.6" y1="15.6" x2="18.8" y2="26.8"/>
		</g>
		<g id="LINE_17_">
			<line class="st0" x1="18.8" y1="26.8" x2="20.9" y2="15.6"/>
		</g>
		<g id="LINE_18_">
			<line class="st0" x1="20.9" y1="15.6" x2="32.2" y2="13.4"/>
		</g>
		<g id="LINE_19_">
			<line class="st0" x1="32.2" y1="13.4" x2="20.9" y2="11.2"/>
		</g>
		<g id="LINE_20_">
			<line class="st0" x1="20.9" y1="11.2" x2="18.8" y2="0"/>
		</g>
		<g id="LINE_21_">
			<line class="st0" x1="20.9" y1="11.2" x2="16.6" y2="15.6"/>
		</g>
		<g id="LINE_22_">
			<line class="st0" x1="20.9" y1="15.6" x2="16.6" y2="11.2"/>
		</g>
		<g id="LINE_29_">
			<line class="st0" x1="18.8" y1="0" x2="18.8" y2="13.4"/>
		</g>
		<g id="LINE_30_">
			<line class="st0" x1="18.8" y1="13.4" x2="18.8" y2="26.8"/>
		</g>
		<g id="LINE_31_">
			<line class="st0" x1="5.4" y1="13.4" x2="32.2" y2="13.4"/>
		</g>
	</g>
	<g id="LINE_70_">
		<line class="st0" x1="10.9" y1="25" x2="5.2" y2="33.1"/>
	</g>
	<g id="LINE_69_">
		<line class="st0" x1="15.9" y1="26.8" x2="13.1" y2="37.2"/>
	</g>
	<g id="LINE_68_">
		<line class="st0" x1="21.7" y1="26.8" x2="24.5" y2="37.2"/>
	</g>
	<g id="LINE_67_">
		<line class="st0" x1="27.6" y1="24.3" x2="33.8" y2="33.2"/>
	</g>
	<g id="LINE_66_">
		<line class="st0" x1="10.1" y1="24.3" x2="3.8" y2="33.2"/>
	</g>
	<g id="LINE_65_">
		<line class="st0" x1="26.6" y1="25" x2="32.9" y2="33.8"/>
	</g>
	<g id="LINE_64_">
		<line class="st0" x1="5.2" y1="33.1" x2="4.8" y2="33.8"/>
	</g>
	<g id="ARC_14_">
		<path class="st0" d="M10.1,24.3c5.3,3.7,12.3,3.7,17.6,0"/>
	</g>
	<g id="ARC_13_">
		<path class="st0" d="M3.8,33.2c9,6.3,21,6.3,30,0"/>
	</g>
	<g id="ARC_12_">
		<path class="st0" d="M7.1,28.4c7,4.9,16.3,4.9,23.3,0"/>
	</g>
	<g id="HATCH_26_">
		<path class="st1" d="M10.1,24.3l-2.8,4c0.3,0.2,0.6,0.4,1,0.6l2.8-4.1C10.6,24.8,10.3,24.6,10.1,24.3z"/>
	</g>
	<g id="HATCH_25_">
		<path class="st1" d="M30.4,28.4c-0.3,0.2-0.6,0.4-1,0.6l3.3,4.8c0.3-0.2,0.7-0.4,1-0.6L30.4,28.4z"/>
	</g>
	<g id="HATCH_24_">
		<path class="st1" d="M8.1,29c-0.3-0.2-0.7-0.4-1-0.6l-3.3,4.8c0.3,0.2,0.7,0.5,1,0.7l0.5-0.7L8.1,29z"/>
	</g>
	<g id="HATCH_23_">
		<path class="st1" d="M26.6,25l2.8,4c0.3-0.2,0.7-0.4,1-0.6l-2.8-4C27.3,24.6,26.9,24.8,26.6,25z"/>
	</g>
</g>
<g>
	<rect x="4.8" y="40.6" class="st2" width="28" height="8.5"/>
	<path class="st3" d="M12.4,48c-0.7,0-1.2-0.3-1.5-0.8c-0.3-0.5-0.4-1.2-0.1-2c0.2-0.8,0.7-1.6,1.3-2.2c0.7-0.7,1.4-1,2.1-1
		c0.1,0,0.3,0,0.4,0.1c0.3,0.1,0.5,0.1,0.6,0.1c0.1,0,0.3,0,0.5-0.1l0.2,1.4l-0.2,0.1c-0.2-0.4-0.4-0.6-0.6-0.8
		c-0.3-0.3-0.6-0.5-1-0.5c-0.5,0-1,0.3-1.5,0.8c-0.4,0.4-0.7,1-0.8,1.6c-0.2,0.7-0.2,1.3-0.1,1.8c0.2,0.6,0.6,0.9,1.3,0.9
		c0.4,0,0.8-0.1,1.3-0.4c0.2-0.2,0.5-0.4,0.8-0.8l0.2,0.1C14.3,47.5,13.4,48,12.4,48z"/>
	<path class="st3" d="M21.2,43.7c-0.3-0.5-0.5-0.8-0.8-0.9c-0.3-0.2-0.7-0.3-1.2-0.3c-0.3,0-0.5,0-0.6,0.1c-0.2,0.1-0.3,0.2-0.4,0.4
		l-0.5,1.9h0.5c0.5,0,0.9-0.1,1.2-0.4c0.1-0.1,0.3-0.3,0.4-0.6h0.2l-0.6,2.2h-0.2c0.1-0.7-0.2-1-1-1h-0.5l-0.5,2
		c-0.1,0.3,0,0.4,0.1,0.5c0.1,0.1,0.3,0.1,0.6,0.1l-0.1,0.2h-2.3l0.1-0.2c0.5,0,0.8-0.2,0.9-0.5l1.2-4.1c0.1-0.2,0-0.4-0.1-0.5
		c-0.1-0.1-0.2-0.1-0.5-0.1l0.1-0.2h4.3l0.2,1.4L21.2,43.7z"/>
	<path class="st3" d="M27.7,43.7c-0.3-0.4-0.5-0.7-0.7-0.9c-0.2-0.2-0.5-0.3-0.8-0.3c-0.3,0-0.4,0.1-0.5,0.4l-1.2,4.3
		c-0.1,0.2,0,0.4,0.2,0.4c0.1,0,0.3,0.1,0.6,0.1l-0.1,0.2h-2.7l0.1-0.2c0.3,0,0.5,0,0.7-0.1c0.2-0.1,0.4-0.2,0.5-0.5l1.2-4.3
		c0.1-0.2-0.1-0.3-0.3-0.3c-0.3,0-0.6,0.1-1,0.3c-0.3,0.2-0.7,0.5-1.2,0.9l-0.2-0.1l0.9-1.4h4.7l0.1,1.4L27.7,43.7z"/>
	<path class="st4" d="M12.3,47.7c-0.7,0-1.2-0.3-1.5-0.8c-0.3-0.5-0.4-1.2-0.1-2c0.2-0.8,0.7-1.6,1.3-2.2c0.7-0.7,1.4-1,2.1-1
		c0.1,0,0.3,0,0.4,0.1c0.3,0.1,0.5,0.1,0.6,0.1c0.1,0,0.3,0,0.5-0.1l0.2,1.4l-0.2,0.1c-0.2-0.4-0.4-0.6-0.6-0.8
		c-0.3-0.3-0.6-0.5-1-0.5c-0.5,0-1,0.3-1.5,0.8c-0.4,0.4-0.7,1-0.8,1.6c-0.2,0.7-0.2,1.3-0.1,1.8c0.2,0.6,0.6,0.9,1.3,0.9
		c0.4,0,0.8-0.1,1.3-0.4c0.2-0.2,0.5-0.4,0.8-0.8L15,46C14.1,47.1,13.2,47.7,12.3,47.7z"/>
	<path class="st4" d="M21.1,43.4c-0.3-0.5-0.5-0.8-0.8-0.9c-0.3-0.2-0.7-0.3-1.2-0.3c-0.3,0-0.5,0-0.6,0.1c-0.2,0.1-0.3,0.2-0.4,0.4
		l-0.5,1.9h0.5c0.5,0,0.9-0.1,1.2-0.4c0.1-0.1,0.3-0.3,0.4-0.6h0.2l-0.6,2.2h-0.2c0.1-0.7-0.2-1-1-1h-0.5l-0.5,2
		c-0.1,0.2,0,0.4,0.1,0.5c0.1,0.1,0.3,0.1,0.6,0.1l-0.1,0.2h-2.3l0.1-0.2c0.5,0,0.8-0.2,0.9-0.5l1.2-4.1c0.1-0.2,0-0.4-0.1-0.5
		c-0.1-0.1-0.2-0.1-0.5-0.1l0.1-0.2h4.3l0.2,1.4L21.1,43.4z"/>
	<path class="st4" d="M27.6,43.4c-0.3-0.4-0.5-0.7-0.7-0.9c-0.2-0.2-0.5-0.3-0.8-0.3c-0.3,0-0.4,0.1-0.5,0.4l-1.2,4.3
		c-0.1,0.2,0,0.4,0.2,0.4c0.1,0,0.3,0.1,0.6,0.1l-0.1,0.2h-2.7l0.1-0.2c0.3,0,0.5,0,0.7-0.1c0.2-0.1,0.4-0.2,0.5-0.5l1.2-4.3
		c0.1-0.2-0.1-0.3-0.3-0.3c-0.3,0-0.6,0.1-1,0.3c-0.3,0.2-0.7,0.5-1.2,0.9l-0.2-0.1l0.9-1.4h4.7l0.1,1.4L27.6,43.4z"/>
</g>
</svg>
